<?xml version="1.0" encoding="UTF-8" standalone="no"?>
<svg width="214px" height="214px" viewBox="0 0 214 214" version="1.1" xmlns="http://www.w3.org/2000/svg" xmlns:xlink="http://www.w3.org/1999/xlink" xmlns:sketch="http://www.bohemiancoding.com/sketch/ns">
    <!-- Generator: Sketch 3.3.1 (12005) - http://www.bohemiancoding.com/sketch -->
    <title>Slice 1</title>
    <desc>Created with Sketch.</desc>
    <defs></defs>
    <g id="Page-1" stroke="none" stroke-width="1" fill="none" fill-rule="evenodd" sketch:type="MSPage">
        <circle id="Oval-1" fill="#D8D8D8" sketch:type="MSShapeGroup" cx="107" cy="73" r="9"></circle>
        <circle id="Oval-1-Copy" fill="#D8D8D8" sketch:type="MSShapeGroup" cx="146" cy="80" r="9"></circle>
        <circle id="Oval-1-Copy-3" fill="#D8D8D8" sketch:type="MSShapeGroup" cx="201" cy="70" r="9"></circle>
        <circle id="Oval-1-Copy-4" fill="#D8D8D8" sketch:type="MSShapeGroup" cx="13" cy="71" r="9"></circle>
        <circle id="Oval-1-Copy-2" fill="#D8D8D8" sketch:type="MSShapeGroup" cx="69" cy="80" r="9"></circle>
        <path d="M19.1601083,146 C19.1601083,146 52.9372427,141.385697 108.460419,141.385697 C163.983595,141.385697 195,146 195,146 L195,156 C195,156 162.927412,150.267383 108.460419,150.267383 C53.9934256,150.267383 19.1601083,156 19.1601083,156 L19.1601083,146 Z" id="Rectangle-1" fill="#D8D8D8" sketch:type="MSShapeGroup"></path>
        <path id="Path-1" stroke="#979797" sketch:type="MSShapeGroup" d=""></path>
        <path d="M19.3920469,142.435019 C19.3920469,142.435019 77.0755119,137.528751 105.917245,137.528751 C135.760027,137.528751 195.445592,142.435019 195.445592,142.435019 L203.889153,82.5551987 C203.889153,82.5551987 198.102754,82.6671022 198.102754,82.6671022 C198.102754,82.6671022 188.47494,97.5357572 188.47494,97.5357572 C179.485063,111.419217 164.365895,111.799879 154.694495,98.3709419 L150.204042,92.135855 L142.229219,92.135855 L140.294693,95.9571844 C132.824915,110.712466 121.699854,110.257738 115.451128,94.9536541 L111.286781,84.7545318 L102.29092,84.7545318 L99.2403648,94.1887924 C94.153465,109.92073 83.4608769,110.987207 75.3609065,96.5763613 L72.8650107,92.135855 L65.3928084,92.135855 L58.419115,100.1195 C47.5383969,112.575998 32.3255317,110.886984 24.4425509,96.3512617 L17.0213875,82.6671022 C17.0213875,82.6671022 10.8191848,82.6671022 10.8191847,82.6671022 C10.8191847,82.6671022 19.3920469,142.435019 19.3920469,142.435019 Z" id="Path-2" fill="#D8D8D8" sketch:type="MSShapeGroup"></path>
    </g>
</svg>