<?xml version="1.0" encoding="UTF-8" standalone="no"?>
<svg width="248px" height="219px" viewBox="0 0 248 219" version="1.1" xmlns="http://www.w3.org/2000/svg" xmlns:xlink="http://www.w3.org/1999/xlink" xmlns:sketch="http://www.bohemiancoding.com/sketch/ns">
    <!-- Generator: Sketch 3.3.1 (12005) - http://www.bohemiancoding.com/sketch -->
    <title>Slice 1</title>
    <desc>Created with Sketch.</desc>
    <defs></defs>
    <g id="Page-1" stroke="none" stroke-width="1" fill="none" fill-rule="evenodd" sketch:type="MSPage">
        <path d="M104.876525,98.3970013 C108.714971,97.7941133 112.887663,88.4316499 114.197099,77.4802723 L117.116874,53.0609493 L130.508095,53.0609494 L134.030441,77.544763 C135.600502,88.4582483 144.795917,97.3053761 144.795917,97.3053761 L144.795917,97.3053761 C144.795917,97.3053761 142.112607,101.550347 134.920222,103.132326 C129.268193,104.375501 119.454835,103.018373 115.287717,103.132326 C111.45116,103.23724 104.876525,98.3970013 104.876525,98.3970013 L104.876525,98.3970013 Z" id="Rectangle-2" fill="#D8D8D8" sketch:type="MSShapeGroup"></path>
        <g id="Group" sketch:type="MSLayerGroup" transform="translate(27.000000, 27.000000)">
            <circle id="Oval-1" fill="#D8D8D8" sketch:type="MSShapeGroup" cx="97" cy="109" r="9"></circle>
            <circle id="Oval-1-Copy-3" fill="#D8D8D8" sketch:type="MSShapeGroup" cx="96.5" cy="11.5" r="11.5"></circle>
            <circle id="Oval-1-Copy" fill="#D8D8D8" sketch:type="MSShapeGroup" cx="136" cy="116" r="9"></circle>
            <circle id="Oval-1-Copy-2" fill="#D8D8D8" sketch:type="MSShapeGroup" cx="59" cy="116" r="9"></circle>
            <path d="M9.16010833,182 C9.16010833,182 42.9372427,177.385697 98.4604187,177.385697 C153.983595,177.385697 185,182 185,182 L185,192 C185,192 152.927412,186.267383 98.4604187,186.267383 C43.9934256,186.267383 9.16010833,192 9.16010833,192 L9.16010833,182 Z" id="Rectangle-1" fill="#D8D8D8" sketch:type="MSShapeGroup"></path>
            <path id="Path-1" stroke="#979797" sketch:type="MSShapeGroup" d=""></path>
            <path d="M9.39204694,178.435019 C9.39204694,178.435019 67.0755119,173.528751 95.9172454,173.528751 C125.760027,173.528751 185.445592,178.435019 185.445592,178.435019 L193.781587,118.667102 C193.781587,118.667102 187.538606,118.667102 187.538606,118.667102 C187.538606,118.667102 178.192432,133.422131 178.192432,133.422131 C169.35858,147.368345 154.381392,147.821397 144.734398,134.426347 L140.204042,128.135855 L132.229219,128.135855 L130.27123,132.00353 C122.814411,146.733215 111.710569,146.283979 105.476618,131.016082 L101.286781,120.754532 L92.2909197,120.754532 L89.2245809,130.237606 C84.1463983,145.942584 73.473134,147.009014 65.3884993,132.625452 L62.8650107,128.135855 L55.3928084,128.135855 L48.3755539,136.16937 C37.5188939,148.598326 22.3401612,146.91396 14.4728923,132.407209 L7.02138754,118.667102 C7.02138754,118.667102 0.819184751,118.667102 0.819184748,118.667102 C0.819184735,118.667102 9.39204694,178.435019 9.39204694,178.435019 Z" id="Path-2" fill="#D8D8D8" sketch:type="MSShapeGroup"></path>
        </g>
        <path d="M126.977949,158.255319 C134.951579,172.426547 150.142616,182 167.571429,182 C170.573486,182 173.509151,181.715966 176.352975,181.173324 L176.352975,181.173324 C177.921345,182.433237 179.766278,183.139537 181.936046,183.139537 C197.794508,183.139537 225,145.409702 225,129.56383 C225,114.546547 213.4535,102.223952 198.747417,100.976304 C190.496271,93.5323796 179.563567,89 167.571429,89 C155.001216,89 143.59504,93.9798723 135.221091,102.072908 C132.609363,101.291901 129.841402,100.87234 126.975369,100.87234 C123.288725,100.87234 119.764353,101.566558 116.526042,102.8313 C108.08841,94.2920961 96.3671473,89 83.408867,89 C71.4714123,89 60.5837527,93.4911385 52.3459211,100.874653 C36.6572158,101.071743 24,113.840835 24,129.56383 C24,145.409702 42.294862,185.308582 58.1533241,185.308582 C61.922422,185.308582 65.2146704,183.054792 68.0438287,179.405796 L68.0438287,179.405796 C72.854076,181.086368 78.0246916,182 83.408867,182 C100.896551,182 116.131316,172.361763 124.082899,158.111559 C125.034143,158.206633 125.999066,158.255319 126.975369,158.255319 Z" id="Oval-5" stroke="#D8D8D8" stroke-width="4" sketch:type="MSShapeGroup"></path>
        <path d="M31.8340544,150.580972 C31.8340544,150.580972 20.0679409,118.74683 18.9053256,103.065156 C17.7427103,87.3834826 18.9053256,81.5279973 27.4321248,71.6566473 C35.958924,61.7852973 48.1362655,60.7143208 55.7886626,60.7143207 C63.4410598,60.7143205 83.2335772,70.0134557 91.1315505,71.6566469 C99.0295239,73.2998381 109.306117,72.6753828 109.306117,72.6753828 L139.019552,72.6753828 C139.019552,72.6753828 143.862351,73.9327866 155.56779,71.6566474 C167.273229,69.3805083 168.738626,67.4271051 177.117963,65.2670934 C182.888154,63.7796628 190.346738,60.7143207 198.016373,60.7143207 C205.686008,60.7143206 213.977346,61.8621808 221.884986,71.6566472 C228.920865,80.3713432 231.122211,87.9177068 229.458743,103.065156 C227.795276,118.212606 215.370808,150.580972 215.370808,150.580972" id="Path-3" stroke="#D8D8D8" stroke-width="7" sketch:type="MSShapeGroup"></path>
    </g>
</svg>